<svg xmlns="http://www.w3.org/2000/svg"
    width="520" height="500" viewBox="0 0 520 500"
    role="img" aria-labelledby="fixpoint-title">
  <title id="fixpoint-title">Fixpoint stacked logo for dark backgrounds</title>
  
<g transform="translate(142.500 47.500)
              scale(1.1750000)">
  <path d="M74 44 C46 63 46 137 74 156"
        fill="none" stroke="#FFFFFF"
        stroke-width="7.500"
        stroke-linecap="round"/>
  <path d="M126 44 C154 63 154 137 126 156"
        fill="none" stroke="#FFFFFF"
        stroke-width="7.500"
        stroke-linecap="round"/>
  <line x1="100" y1="22" x2="100" y2="178"
        stroke="#FFFFFF"
        stroke-width="5.200"
        stroke-linecap="round"/>
  <circle cx="100" cy="100" r="12.5" fill="#B64545"/>
</g>
<path d="M136 0H358V657H1049V849H358V1295H1106V1490H136Z" transform="translate(88.339 420.000) scale(0.0419922 -0.0419922)" fill="#FFFFFF"/>
<path d="M119 0H330V1056H119Z" transform="translate(142.298 420.000) scale(0.0419922 -0.0419922)" fill="#FFFFFF"/>
<path d="M24 0H263L413 214C453 275 492 333 531 392C569 333 607 275 647 214L794 0H1035L651 541L1017 1056H780L652 868C610 806 571 746 532 685C494 746 456 806 415 868L289 1056H48L413 538Z" transform="translate(166.653 420.000) scale(0.0419922 -0.0419922)" fill="#FFFFFF"/>
<path d="M119 -418H330V159H333C404 38 517 -21 655 -21C930 -21 1113 201 1113 528C1113 854 929 1077 656 1077C519 1077 396 1020 329 904H326V1056H119ZM612 161C432 161 316 306 316 528C316 750 432 896 612 896C782 896 899 767 899 528C899 290 782 161 612 161Z" transform="translate(216.623 420.000) scale(0.0419922 -0.0419922)" fill="#FFFFFF"/>
<path d="M573 -24C875 -24 1078 201 1078 526C1078 853 875 1080 573 1080C271 1080 67 853 67 526C67 201 271 -24 573 -24ZM573 158C392 158 281 301 281 526C281 753 393 898 573 898C753 898 865 753 865 526C865 302 754 158 573 158Z" transform="translate(271.673 420.000) scale(0.0419922 -0.0419922)" fill="#FFFFFF"/>
<path d="M119 0H330V1056H119Z" transform="translate(325.296 420.000) scale(0.0419922 -0.0419922)" fill="#FFFFFF"/>
<path d="M330 608C330 804 441 888 585 888C731 888 816 801 816 632V0H1027V658C1027 934 862 1077 645 1077C506 1077 398 1017 326 897V1056H119V0H330Z" transform="translate(349.651 420.000) scale(0.0419922 -0.0419922)" fill="#FFFFFF"/>
<path d="M628 1056H414V1344H202V1056H16V882H202V252C202 82 297 0 495 0H628V174H525C441 174 414 201 414 279V882H628Z" transform="translate(403.274 420.000) scale(0.0419922 -0.0419922)" fill="#FFFFFF"/>
<circle cx="151.726" cy="352.060" r="4.472" fill="#B64545"/>
<circle cx="334.724" cy="352.060" r="4.472" fill="#B64545"/>
</svg>
