<svg xmlns="http://www.w3.org/2000/svg"
    width="520" height="390" viewBox="0 0 520 390"
    role="img" aria-labelledby="fixpoint-title">
  <title id="fixpoint-title">Fixpoint stacked wordmark for dark backgrounds</title>
  <path d="M136 0H358V657H1049V849H358V1295H1106V1490H136Z" transform="translate(173.968 150.000) scale(0.0512695 -0.0512695)" fill="#FFFFFF"/>
<path d="M358 1490H136V0H358Z" transform="translate(242.133 150.000) scale(0.0512695 -0.0512695)" fill="#FFFFFF"/>
<path d="M21 0H272L522 361C576 438 628 515 679 593C730 515 781 438 834 361L1080 0H1337L809 770L1304 1490H1055L850 1191C792 1106 736 1021 681 936C626 1021 571 1106 514 1191L313 1490H58L555 762Z" transform="translate(276.460 150.000) scale(0.0512695 -0.0512695)" fill="#FFFFFF"/><path d="M136 0H358V561H681C1000 561 1207 740 1207 1026C1207 1311 1007 1490 688 1490H136ZM358 753V1297H677C869 1297 988 1194 988 1026C988 858 869 753 677 753Z" transform="translate(87.576 330.000) scale(0.0512695 -0.0512695)" fill="#FFFFFF"/>
<path d="M766 -24C1163 -24 1452 288 1452 744C1452 1202 1163 1514 766 1514C369 1514 81 1202 81 744C81 289 369 -24 766 -24ZM766 179C509 179 304 381 304 744C304 1109 509 1311 766 1311C1023 1311 1229 1109 1229 744C1229 381 1023 179 766 179Z" transform="translate(161.483 330.000) scale(0.0512695 -0.0512695)" fill="#FFFFFF"/>
<path d="M358 1490H136V0H358Z" transform="translate(249.080 330.000) scale(0.0512695 -0.0512695)" fill="#FFFFFF"/>
<path d="M136 0H358V806C358 872 357 1001 350 1176C449 1006 530 871 572 805L1081 0H1329V1490H1106V603C1106 549 1108 422 1112 314C1052 420 986 533 951 589L382 1490H136Z" transform="translate(283.407 330.000) scale(0.0512695 -0.0512695)" fill="#FFFFFF"/>
<path d="M48 1295H523V0H746V1295H1219V1490H48Z" transform="translate(367.465 330.000) scale(0.0512695 -0.0512695)" fill="#FFFFFF"/>
<circle cx="200.781" cy="291.675" r="6.090" fill="#C43D3D"/>
<line x1="200.781" y1="246.000" x2="200.781" y2="253.350" stroke="#C43D3D" stroke-width="1.260" stroke-linecap="round" opacity="0.52"/>
<line x1="200.781" y1="330.000" x2="200.781" y2="337.350" stroke="#C43D3D" stroke-width="1.260" stroke-linecap="round" opacity="0.52"/>
<line x1="155.106" y1="291.675" x2="162.456" y2="291.675" stroke="#C43D3D" stroke-width="1.260" stroke-linecap="round" opacity="0.52"/>
<line x1="239.106" y1="291.675" x2="246.456" y2="291.675" stroke="#C43D3D" stroke-width="1.260" stroke-linecap="round" opacity="0.52"/>
</svg>
